<?xml version="1.0" encoding="utf-8"?>
<!-- Generator: Adobe Illustrator 22.0.0, SVG Export Plug-In . SVG Version: 6.00 Build 0)  -->
<svg version="1.1" id="Layer_1" xmlns="http://www.w3.org/2000/svg" xmlns:xlink="http://www.w3.org/1999/xlink" x="0px" y="0px"
	 viewBox="0 0 184 146" style="enable-background:new 0 0 184 146;" xml:space="preserve">
<style type="text/css">
	.st0{fill:#104767;}
	.st1{fill:#45AEB1;}
</style>
<g>
	<path class="st1" d="M63.1,65.1c6,0,10.9-4.9,10.9-10.9c0-6-4.9-10.9-10.9-10.9c-6,0-10.9,4.9-10.9,10.9
		C52.3,60.2,57.1,65.1,63.1,65.1"/>
	<path class="st1" d="M57.4,77.2h22.9c2.6,0,4.8-1.9,5.3-4.4c0.1-0.4,0.1-0.7,0.1-1.1V56.3c0-3-2.4-5.5-5.5-5.5
		c-3,0-5.5,2.4-5.5,5.5v9.9H57.4c-3,0-5.4,2.4-5.4,5.5C52,74.7,54.4,77.2,57.4,77.2"/>
	<path class="st1" d="M142.8,76.3c0-13.8-11.1-25.5-24.9-25.5H88v26.4h54.7C142.7,76.9,142.8,76.6,142.8,76.3"/>
	<path class="st1" d="M150.7,50.4c-3.5,0-6.3,2.8-6.3,6.3v23.8H50V41.1c0-3.5-2.8-6.3-6.3-6.3c-3.5,0-6.3,2.8-6.3,6.3v70.6H50V94.4
		h94.5v17.2H157v-55C157,53.2,154.1,50.4,150.7,50.4"/>
</g>
</svg>
