<?xml version="1.0" encoding="utf-8"?>
<!-- Generator: Adobe Illustrator 22.0.0, SVG Export Plug-In . SVG Version: 6.00 Build 0)  -->
<svg version="1.1" id="Layer_1" xmlns="http://www.w3.org/2000/svg" xmlns:xlink="http://www.w3.org/1999/xlink" x="0px" y="0px"
	 viewBox="0 0 143 146" style="enable-background:new 0 0 143 146;" xml:space="preserve">
<style type="text/css">
	.st0{fill:#104767;}
	.st1{fill:#45AEB1;}
</style>
<path class="st1" d="M87.9,40.2l-41.6,8.1c0.9-12.1,11.5-21.1,23.6-20.2c7.7,0.6,14.6,5.2,18,12.2L87.9,40.2z M54.3,66.8v8.4l14,4.8
	l14-4.8v-8.3c5.1-4.2,8-10.4,8-16.9c0-2-0.3-4-0.8-6l-43.1,8.4C47,58,49.8,63.2,54.3,66.8 M27.6,114.8v7.2c0,1.1,0.9,2.1,2.1,2.1
	h41.9V99.9H30.3c-1.8,4.7-2.7,9.7-2.7,14.7V114.8z M81.7,105.9h-6.1v18h6.1c4.9,0.3,9.2-3.4,9.5-8.3c0.3-4.9-3.4-9.2-8.3-9.5
	c-0.4,0-0.8,0-1.2,0V105.9z M67.6,83.9l-15.2-5.2v17.2h11.1l18.2-16.3l-12.8,4.4C68.5,84.1,68,84.1,67.6,83.9 M48.4,79
	c-7.1,3.8-12.8,9.7-16.3,16.9h16.3V79z M88.4,79L69.5,95.9h4c1.1,0,2,0.9,2,2v4h6.1c7.1-0.1,12.9,5.6,13.1,12.7
	c0,3.5-1.3,6.8-3.8,9.3h17.3c1.1,0,2.1-0.9,2.1-2.1v-7.3c0.1-15.1-8.3-28.9-21.7-35.7L88.4,79z"/>
</svg>
