<?xml version="1.0" encoding="utf-8"?>
<!-- Generator: Adobe Illustrator 22.0.0, SVG Export Plug-In . SVG Version: 6.00 Build 0)  -->
<svg version="1.1" id="Layer_1" xmlns="http://www.w3.org/2000/svg" xmlns:xlink="http://www.w3.org/1999/xlink" x="0px" y="0px"
	 viewBox="0 0 140 146" style="enable-background:new 0 0 140 146;" xml:space="preserve">
<style type="text/css">
	.st0{fill:#104767;}
	.st1{fill:#45AEB1;}
</style>
<path class="st1" d="M96.1,105.2H77V62.7h16.9c1.4,0,2.5-1.1,2.5-2.5V49c0-1.4-1.1-2.5-2.5-2.5H77V30.9c0-1.4-1.1-2.5-2.5-2.5H63.3
	c-1.4,0-2.5,1.1-2.5,2.5v15.7H44c-1.4,0-2.5,1.1-2.5,2.5v11.2c0,1.4,1.1,2.5,2.5,2.5h16.9v42.6H41.7c-5.5,0-9.9,4.4-9.9,9.9v8.3
	h74.1v-8.3C105.9,109.7,101.5,105.2,96.1,105.2"/>
</svg>
