<?xml version="1.0" encoding="utf-8"?>
<!-- Generator: Adobe Illustrator 22.0.0, SVG Export Plug-In . SVG Version: 6.00 Build 0)  -->
<svg version="1.1" id="Layer_1" xmlns="http://www.w3.org/2000/svg" xmlns:xlink="http://www.w3.org/1999/xlink" x="0px" y="0px"
	 viewBox="0 0 168 146" style="enable-background:new 0 0 168 146;" xml:space="preserve">
<style type="text/css">
	.st0{fill:#104767;}
	.st1{fill:#45AEB1;}
</style>
<g>
	<path class="st1" d="M77.6,54L50.9,86.8c-4-0.1-10.7-0.2-12.8-0.2c-11.7,0-11.7,10.6-0.1,10.6c1.8,0,6.9,0.2,13,0.2l26.6,31.8h8.7
		l-16-33l24.9-1l7.7,10.2l5.6,0c0,0-3.3-9.4-3.3-13.5c0-4.1,3-14.9,3-14.9l-5.6,0.2l-7.4,10.9l-24.9-0.8l16-33.4H77.6z"/>
	<path class="st1" d="M113.7,95.3c-1.9,0-3.4-1.5-3.4-3.4c0-1.9,1.5-3.4,3.4-3.4c1.9,0,3.4,1.5,3.4,3.4
		C117.1,93.8,115.6,95.3,113.7,95.3 M124,93.4c-1.4,0-2.7-0.9-3.2-2.2c-0.7-1.8,0.3-3.8,2-4.4c1.7-0.7,3.8,0.3,4.4,2
		c0.3,0.8,0.3,1.8-0.1,2.6c-0.4,0.8-1.1,1.4-1.9,1.8C124.8,93.4,124.4,93.4,124,93.4 M133.1,88.1c-1,0-1.9-0.4-2.6-1.2
		c-0.6-0.7-0.9-1.6-0.8-2.5c0.1-0.9,0.5-1.7,1.2-2.3c1.4-1.2,3.6-1,4.8,0.4c0.6,0.7,0.9,1.6,0.8,2.5c-0.1,0.9-0.5,1.8-1.2,2.3
		C134.7,87.8,133.9,88.1,133.1,88.1 M139.7,80c-0.6,0-1.2-0.2-1.7-0.4c-1.7-0.9-2.2-3-1.3-4.6c0.9-1.6,3-2.2,4.6-1.3
		c1.6,0.9,2.2,3,1.3,4.6C142.1,79.3,141,80,139.7,80 M143.1,70.1c-0.2,0-0.3,0-0.5-0.1c-0.9-0.1-1.7-0.6-2.2-1.3
		c-0.6-0.7-0.8-1.7-0.6-2.5c0.3-1.8,2-3.1,3.9-2.8c1.8,0.3,3.1,2,2.8,3.9C146.2,68.9,144.8,70.1,143.1,70.1 M142.9,59.6
		c-1.6,0-3-1.2-3.4-2.7c-0.2-0.9,0-1.8,0.5-2.6c0.5-0.8,1.3-1.3,2.2-1.4c1.9-0.4,3.6,0.9,4,2.7c0.2,0.9,0,1.8-0.5,2.5
		s-1.3,1.3-2.2,1.4C143.3,59.6,143.1,59.6,142.9,59.6 M139,49.8c-1.2,0-2.3-0.6-2.9-1.6c-0.5-0.8-0.6-1.7-0.4-2.6
		c0.2-0.9,0.7-1.7,1.5-2.1c1.5-1,3.7-0.4,4.7,1.1c0.5,0.8,0.6,1.7,0.4,2.6c-0.2,0.9-0.8,1.7-1.5,2.1C140.3,49.6,139.7,49.8,139,49.8
		 M132,42L132,42c-0.8,0-1.5-0.3-2.1-0.7c-0.7-0.6-1.2-1.4-1.3-2.3c-0.1-0.9,0.2-1.8,0.7-2.5c1.1-1.4,3.3-1.7,4.8-0.6
		c0,0,0.1,0.1,0.1,0.1c0.7,0.6,1.1,1.3,1.2,2.2c0.1,0.9-0.1,1.8-0.7,2.5C134.1,41.5,133.1,42,132,42 M122.7,37.1
		c-0.3,0-0.7-0.1-1-0.2c-0.9-0.3-1.6-0.9-2-1.7c-0.4-0.8-0.5-1.7-0.2-2.6c0.6-1.8,2.5-2.8,4.3-2.2c1.8,0.6,2.8,2.5,2.2,4.3
		C125.5,36.1,124.2,37.1,122.7,37.1 M112.3,35.7c-1.9,0-3.4-1.5-3.4-3.4c0-1.9,1.6-3.4,3.4-3.4c1.9,0,3.4,1.5,3.4,3.4
		C115.7,34.2,114.2,35.7,112.3,35.7 M101.8,35.7c-1.9,0-3.4-1.5-3.4-3.4c0-1.9,1.5-3.4,3.4-3.4c1.9,0,3.4,1.5,3.4,3.4
		C105.2,34.2,103.7,35.7,101.8,35.7 M91.2,35.7c-1.9,0-3.4-1.5-3.4-3.4c0-1.9,1.5-3.4,3.4-3.4c1.9,0,3.4,1.5,3.4,3.4
		C94.6,34.2,93.1,35.7,91.2,35.7 M80.7,35.7c-1.9,0-3.4-1.5-3.4-3.4c0-1.9,1.5-3.4,3.4-3.4c1.9,0,3.4,1.5,3.4,3.4
		C84.1,34.2,82.5,35.7,80.7,35.7 M70.1,35.7c-1.9,0-3.4-1.5-3.4-3.4c0-1.9,1.5-3.4,3.4-3.4c1.9,0,3.4,1.5,3.4,3.4
		C73.5,34.2,72,35.7,70.1,35.7 M59.6,35.7c-1.9,0-3.4-1.5-3.4-3.4c0-1.9,1.5-3.4,3.4-3.4c1.9,0,3.4,1.5,3.4,3.4
		C62.9,34.2,61.4,35.7,59.6,35.7"/>
</g>
</svg>
